<svg id="Livello_1" data-name="Livello 1" xmlns="http://www.w3.org/2000/svg" viewBox="0 0 257 50"><defs><style>.cls-1{fill:#cd9f5e;}.cls-2{fill:#cb9d5e;}.cls-3,.cls-4{fill:#001441;}.cls-4{fill-rule:evenodd;}</style></defs><path class="cls-1" d="M71.22,38.25a.1.1,0,0,1-.1-.1V36.07a.1.1,0,0,1,.1-.1.09.09,0,0,1,.09.1v2.08A.09.09,0,0,1,71.22,38.25Z"/><path class="cls-1" d="M71.62,37.89a.11.11,0,0,1-.08,0l-.32-.37-.33.37a.09.09,0,0,1-.13,0,.11.11,0,0,1,0-.14l.4-.44a.1.1,0,0,1,.14,0l.4.44a.11.11,0,0,1,0,.14Z"/><path class="cls-1" d="M71.92,37.39a.09.09,0,0,1-.07,0l-.63-.62-.63.62a.1.1,0,0,1-.14,0,.1.1,0,0,1,0-.13l.7-.69a.1.1,0,0,1,.14,0l.69.69a.09.09,0,0,1,0,.13A.11.11,0,0,1,71.92,37.39Z"/><path class="cls-1" d="M73,37.2h0l-1.81-1a.1.1,0,0,1,0-.13.1.1,0,0,1,.13,0L73.07,37a.1.1,0,0,1,0,.13A.09.09,0,0,1,73,37.2Z"/><path class="cls-1" d="M72.52,37.37a.1.1,0,0,1-.09-.07l-.19-.56a.11.11,0,0,1,0-.08.08.08,0,0,1,.06,0l.59-.12a.09.09,0,1,1,0,.18l-.48.1.15.46a.09.09,0,0,1-.06.12Z"/><path class="cls-1" d="M71.94,37.38a.11.11,0,0,1-.1-.07l-.24-1a.08.08,0,0,1,.06-.11l1-.26a.09.09,0,0,1,.12.06.11.11,0,0,1-.07.12l-.86.23.23.86a.1.1,0,0,1-.07.12Z"/><path class="cls-1" d="M71.22,36.16a.09.09,0,0,1-.08,0,.1.1,0,0,1,0-.13l1.81-1a.1.1,0,0,1,.13,0,.1.1,0,0,1,0,.13l-1.8,1Z"/><path class="cls-1" d="M72.92,35.64h0l-.59-.12a.15.15,0,0,1-.06-.05.11.11,0,0,1,0-.08l.19-.56a.09.09,0,0,1,.12-.06.09.09,0,0,1,.06.12l-.15.46.48.1a.09.09,0,0,1,.07.11A.09.09,0,0,1,72.92,35.64Z"/><path class="cls-1" d="M72.64,36.15h0l-1-.26a.09.09,0,0,1-.06-.12l.24-1a.1.1,0,1,1,.19,0l-.23.86.86.23a.11.11,0,0,1,.07.12A.11.11,0,0,1,72.64,36.15Z"/><path class="cls-1" d="M71.22,36.16a.1.1,0,0,1-.1-.09V34a.11.11,0,0,1,.1-.1.1.1,0,0,1,.09.1v2.09A.09.09,0,0,1,71.22,36.16Z"/><path class="cls-1" d="M71.22,34.87a.09.09,0,0,1-.07,0l-.4-.44a.11.11,0,0,1,0-.14.09.09,0,0,1,.13,0l.33.37.32-.37a.1.1,0,1,1,.15.13l-.4.44A.09.09,0,0,1,71.22,34.87Z"/><path class="cls-1" d="M71.22,35.62a.11.11,0,0,1-.07,0l-.7-.69a.1.1,0,0,1,0-.13.1.1,0,0,1,.14,0l.63.62.63-.62a.1.1,0,0,1,.14,0,.09.09,0,0,1,0,.13l-.69.69A.11.11,0,0,1,71.22,35.62Z"/><path class="cls-1" d="M71.22,36.16h0l-1.81-1a.09.09,0,0,1,0-.13.1.1,0,0,1,.13,0l1.81,1a.1.1,0,0,1,0,.13A.1.1,0,0,1,71.22,36.16Z"/><path class="cls-1" d="M69.52,35.64a.09.09,0,0,1-.09-.08.09.09,0,0,1,.07-.11l.48-.1-.15-.46a.09.09,0,0,1,.06-.12.09.09,0,0,1,.12.06l.19.56a.19.19,0,0,1,0,.08.18.18,0,0,1-.07.05l-.58.12Z"/><path class="cls-1" d="M69.8,36.15a.1.1,0,0,1-.09-.07.11.11,0,0,1,.07-.12l.85-.23-.22-.86a.11.11,0,0,1,.07-.12.09.09,0,0,1,.11.07l.25,1a.11.11,0,0,1-.07.12l-.94.26Z"/><path class="cls-1" d="M69.41,37.2a.09.09,0,0,1-.08,0,.09.09,0,0,1,0-.13L71.17,36a.1.1,0,0,1,.13,0,.1.1,0,0,1,0,.13l-1.81,1Z"/><path class="cls-1" d="M69.92,37.37h0a.09.09,0,0,1-.06-.12l.15-.46-.48-.1a.09.09,0,1,1,0-.18l.58.12a.1.1,0,0,1,.07,0,.19.19,0,0,1,0,.08L70,37.3A.11.11,0,0,1,69.92,37.37Z"/><path class="cls-1" d="M70.5,37.38h0a.1.1,0,0,1-.07-.12l.22-.86-.85-.23a.11.11,0,0,1-.07-.12.09.09,0,0,1,.12-.06l.94.26a.09.09,0,0,1,.07.11l-.25,1A.1.1,0,0,1,70.5,37.38Z"/><path class="cls-1" d="M174.75,37.63a.09.09,0,0,1-.1-.09V35.45a.09.09,0,0,1,.1-.09.09.09,0,0,1,.09.09v2.09A.09.09,0,0,1,174.75,37.63Z"/><path class="cls-1" d="M175.14,37.28a.09.09,0,0,1-.07,0l-.32-.36-.33.36a.09.09,0,1,1-.14-.12l.39-.45a.11.11,0,0,1,.15,0l.39.45a.09.09,0,0,1,0,.13A.07.07,0,0,1,175.14,37.28Z"/><path class="cls-1" d="M175.44,36.78a.09.09,0,0,1-.06,0l-.63-.62-.64.62a.09.09,0,0,1-.13,0,.1.1,0,0,1,0-.14l.7-.68a.09.09,0,0,1,.13,0l.7.68a.1.1,0,0,1,0,.14A.09.09,0,0,1,175.44,36.78Z"/><path class="cls-1" d="M176.55,36.59h0l-1.81-1a.1.1,0,0,1,0-.13.1.1,0,0,1,.13,0l1.81,1a.09.09,0,0,1,0,.13A.08.08,0,0,1,176.55,36.59Z"/><path class="cls-1" d="M176.05,36.75a.09.09,0,0,1-.09-.06l-.19-.57a.06.06,0,0,1,0-.07s0,0,.06,0l.58-.12a.1.1,0,0,1,.12.07.1.1,0,0,1-.08.12l-.48.09.16.47a.1.1,0,0,1-.06.12Z"/><path class="cls-1" d="M175.46,36.77a.09.09,0,0,1-.09-.08l-.25-.94a.1.1,0,0,1,.07-.12l.95-.26a.09.09,0,0,1,.11.07.08.08,0,0,1-.06.11l-.86.24.22.86a.08.08,0,0,1-.06.11Z"/><path class="cls-1" d="M174.75,35.54a.1.1,0,0,1-.09,0,.1.1,0,0,1,0-.13l1.81-1a.09.09,0,0,1,.12,0,.09.09,0,0,1,0,.13l-1.81,1Z"/><path class="cls-1" d="M176.44,35h0l-.58-.12s-.05,0-.06,0a.06.06,0,0,1,0-.07l.19-.57a.1.1,0,0,1,.12-.06.1.1,0,0,1,.06.12l-.16.47.48.09a.1.1,0,0,1,.08.12A.1.1,0,0,1,176.44,35Z"/><path class="cls-1" d="M176.16,35.53h0l-.95-.26a.1.1,0,0,1-.07-.11l.25-.95a.09.09,0,0,1,.12-.07.08.08,0,0,1,.06.11l-.22.86.86.24a.08.08,0,0,1,.06.11A.09.09,0,0,1,176.16,35.53Z"/><path class="cls-1" d="M174.75,35.54a.09.09,0,0,1-.1-.09V33.36a.09.09,0,0,1,.1-.09.09.09,0,0,1,.09.09v2.09A.09.09,0,0,1,174.75,35.54Z"/><path class="cls-1" d="M174.75,34.26a.11.11,0,0,1-.08,0l-.39-.45a.09.09,0,1,1,.14-.12l.33.36.32-.36a.09.09,0,0,1,.14.12l-.39.45A.11.11,0,0,1,174.75,34.26Z"/><path class="cls-1" d="M174.75,35a.09.09,0,0,1-.07,0l-.7-.68a.1.1,0,0,1,0-.14.09.09,0,0,1,.13,0l.64.62.63-.62a.09.09,0,0,1,.13,0,.1.1,0,0,1,0,.14l-.7.68A.09.09,0,0,1,174.75,35Z"/><path class="cls-1" d="M174.75,35.54h-.05l-1.81-1a.1.1,0,0,1,0-.13.1.1,0,0,1,.13,0l1.8,1a.1.1,0,0,1,0,.13A.09.09,0,0,1,174.75,35.54Z"/><path class="cls-1" d="M173.05,35A.08.08,0,0,1,173,35a.09.09,0,0,1,.07-.12l.48-.09-.16-.47a.1.1,0,0,1,.06-.12.1.1,0,0,1,.12.06l.19.57a.06.06,0,0,1,0,.07s0,0-.06,0l-.58.12Z"/><path class="cls-1" d="M173.33,35.53a.09.09,0,0,1-.09-.07.08.08,0,0,1,.06-.11l.86-.24-.22-.86a.08.08,0,0,1,.06-.11.09.09,0,0,1,.12.07l.25.95a.1.1,0,0,1-.07.11l-1,.26Z"/><path class="cls-1" d="M172.94,36.59a.09.09,0,0,1-.08-.05.1.1,0,0,1,0-.13l1.81-1a.1.1,0,0,1,.13,0,.1.1,0,0,1,0,.13l-1.8,1Z"/><path class="cls-1" d="M173.44,36.75h0a.1.1,0,0,1-.06-.12l.16-.47-.48-.09A.09.09,0,0,1,173,36a.09.09,0,0,1,.11-.07l.58.12s0,0,.06,0a.06.06,0,0,1,0,.07l-.19.57A.09.09,0,0,1,173.44,36.75Z"/><path class="cls-1" d="M174,36.77h0a.08.08,0,0,1-.06-.11l.22-.86-.86-.24a.08.08,0,0,1-.06-.11.09.09,0,0,1,.11-.07l1,.26a.1.1,0,0,1,.07.12l-.25.94A.09.09,0,0,1,174,36.77Z"/><path class="cls-1" d="M210.78,46.15a.06.06,0,0,1-.06-.06V44.82a.06.06,0,0,1,.12,0v1.27A.06.06,0,0,1,210.78,46.15Z"/><path class="cls-1" d="M211,45.94l0,0-.2-.23-.2.23a.06.06,0,0,1-.08,0,.05.05,0,0,1,0-.08l.24-.27a0,0,0,0,1,.08,0l.24.27a.06.06,0,0,1,0,.08Z"/><path class="cls-1" d="M211.21,45.63a.06.06,0,0,1-.05,0l-.38-.37-.39.37s0,0-.08,0a.06.06,0,0,1,0-.08l.43-.42a.06.06,0,0,1,.08,0l.43.42a.06.06,0,0,1,0,.08A0,0,0,0,1,211.21,45.63Z"/><path class="cls-1" d="M211.88,45.52h0l-1.1-.64a0,0,0,0,1,0-.07.07.07,0,0,1,.08,0l1.1.64a.05.05,0,0,1,0,.08A.05.05,0,0,1,211.88,45.52Z"/><path class="cls-1" d="M211.57,45.62a.07.07,0,0,1,0,0l-.12-.35a.06.06,0,0,1,0,0s0,0,0,0l.35-.07a.06.06,0,0,1,.07,0s0,.06-.05.07l-.29.06.1.28a.06.06,0,0,1,0,.07Z"/><path class="cls-1" d="M211.22,45.62a.05.05,0,0,1-.06,0L211,45a.06.06,0,0,1,0-.07l.58-.16a.07.07,0,0,1,.07,0,.06.06,0,0,1,0,.08l-.52.14.13.52a.06.06,0,0,1,0,.07Z"/><path class="cls-1" d="M210.78,44.88a.06.06,0,0,1,0-.11l1.1-.63a.06.06,0,1,1,.06.1l-1.1.63Z"/><path class="cls-1" d="M211.81,44.56h0l-.35-.07s0,0,0,0a.07.07,0,0,1,0-.05l.12-.34a.06.06,0,0,1,.07,0,.07.07,0,0,1,0,.08l-.1.28.29.06s.06,0,.05.07A.07.07,0,0,1,211.81,44.56Z"/><path class="cls-1" d="M211.64,44.88h0l-.58-.16s-.05,0,0-.07l.15-.57a.08.08,0,0,1,.07,0,.06.06,0,0,1,0,.07l-.13.53.52.14a.06.06,0,0,1,0,.07A.06.06,0,0,1,211.64,44.88Z"/><path class="cls-1" d="M210.78,44.88a.06.06,0,0,1-.06-.06V43.55a.06.06,0,0,1,.12,0v1.27A.06.06,0,0,1,210.78,44.88Z"/><path class="cls-1" d="M210.78,44.1a.05.05,0,0,1,0,0l-.24-.27a.05.05,0,0,1,0-.08.06.06,0,0,1,.08,0l.2.22.2-.22a.06.06,0,0,1,.08.08l-.24.27A.05.05,0,0,1,210.78,44.1Z"/><path class="cls-1" d="M210.78,44.55a0,0,0,0,1,0,0l-.43-.41a.08.08,0,0,1,0-.09.06.06,0,0,1,.08,0l.39.38.38-.38a.06.06,0,0,1,.09.09l-.43.41A0,0,0,0,1,210.78,44.55Z"/><path class="cls-1" d="M210.78,44.88h0l-1.1-.63a.06.06,0,0,1,.06-.1l1.1.63a.06.06,0,0,1,0,.11Z"/><path class="cls-1" d="M209.75,44.56a.07.07,0,0,1-.06,0,.06.06,0,0,1,0-.07l.3-.06-.1-.28a.07.07,0,0,1,0-.08.06.06,0,0,1,.07,0l.12.34a.07.07,0,0,1,0,.05s0,0,0,0l-.35.07Z"/><path class="cls-1" d="M209.92,44.88a.06.06,0,0,1-.06-.05.06.06,0,0,1,0-.07l.52-.14-.13-.53a.06.06,0,0,1,0-.07.08.08,0,0,1,.07,0l.15.57s0,.07,0,.07l-.58.16Z"/><path class="cls-1" d="M209.68,45.52a.05.05,0,0,1-.05,0,.05.05,0,0,1,0-.08l1.1-.64a.07.07,0,0,1,.08,0,0,0,0,0,1,0,.07l-1.1.64Z"/><path class="cls-1" d="M210,45.62h0a.06.06,0,0,1,0-.07l.1-.28-.3-.06a.06.06,0,0,1,0-.11l.35.07s0,0,0,0a.06.06,0,0,1,0,0l-.12.35A.07.07,0,0,1,210,45.62Z"/><path class="cls-1" d="M210.34,45.62h0a.06.06,0,0,1,0-.07l.13-.52-.52-.14a.06.06,0,0,1,0-.08.07.07,0,0,1,.07,0l.58.16a.06.06,0,0,1,0,.07l-.15.58A.05.05,0,0,1,210.34,45.62Z"/><path class="cls-1" d="M7,40.36a.06.06,0,0,1,0-.06V39A.06.06,0,0,1,7,39,.06.06,0,0,1,7.1,39V40.3A.06.06,0,0,1,7,40.36Z"/><path class="cls-1" d="M7.28,40.14l0,0L7,39.9l-.19.22A.06.06,0,1,1,6.76,40L7,39.77a.07.07,0,0,1,.09,0l.24.27a.06.06,0,0,1,0,.09Z"/><path class="cls-1" d="M7.47,39.84l0,0L7,39.44l-.38.38a.06.06,0,0,1-.08-.08L7,39.32a.06.06,0,0,1,.08,0l.43.42a.06.06,0,0,1,0,.08Z"/><path class="cls-1" d="M8.14,39.72h0L7,39.08A.07.07,0,0,1,7,39a.06.06,0,0,1,.08,0l1.1.63a.05.05,0,0,1,0,.08A.05.05,0,0,1,8.14,39.72Z"/><path class="cls-1" d="M7.84,39.82a.05.05,0,0,1-.06,0l-.11-.34a0,0,0,0,1,0,0l0,0,.36-.07a0,0,0,0,1,.06.05,0,0,0,0,1,0,.06l-.29.06.09.29a.05.05,0,0,1,0,.07Z"/><path class="cls-1" d="M7.48,39.83a.07.07,0,0,1-.06,0l-.15-.58a.07.07,0,0,1,0-.07L7.89,39a.06.06,0,1,1,0,.11l-.52.14.14.53a.06.06,0,0,1,0,.07Z"/><path class="cls-1" d="M7,39.09a.05.05,0,0,1,0,0A.06.06,0,0,1,7,39l1.1-.64a.06.06,0,0,1,.07,0,.05.05,0,0,1,0,.08l-1.1.64Z"/><path class="cls-1" d="M8.08,38.77h0l-.36-.08,0,0a0,0,0,0,1,0-.05l.11-.35a.05.05,0,0,1,.07,0,.05.05,0,0,1,0,.07l-.09.28.29.06a.06.06,0,0,1,0,.07A.05.05,0,0,1,8.08,38.77Z"/><path class="cls-1" d="M7.91,39.08h0l-.58-.16a.07.07,0,0,1,0-.07l.15-.58a.06.06,0,0,1,.07,0,.06.06,0,0,1,0,.07l-.14.52.52.15S8,39,8,39A.07.07,0,0,1,7.91,39.08Z"/><path class="cls-1" d="M7,39.09A.06.06,0,0,1,7,39V37.76a.06.06,0,0,1,0-.06.06.06,0,0,1,.06.06V39A.06.06,0,0,1,7,39.09Z"/><path class="cls-1" d="M7,38.3a0,0,0,0,1,0,0L6.76,38a.06.06,0,0,1,0-.08.06.06,0,0,1,.09,0l.19.22.2-.22a.06.06,0,0,1,.09.07l-.24.27S7.06,38.3,7,38.3Z"/><path class="cls-1" d="M7,38.76l0,0-.42-.42a.06.06,0,0,1,.08-.08l.38.38.39-.38a.06.06,0,0,1,.08.08l-.43.42Z"/><path class="cls-1" d="M7,39.09H7l-1.11-.64a.07.07,0,0,1,0-.08.08.08,0,0,1,.08,0l1.1.64a.05.05,0,0,1,0,.08A.05.05,0,0,1,7,39.09Z"/><path class="cls-1" d="M6,38.77A.06.06,0,0,1,6,38.72a.08.08,0,0,1,0-.07l.29-.06-.09-.28a.05.05,0,0,1,0-.07.06.06,0,0,1,.08,0l.11.35s0,0,0,.05l0,0L6,38.77Z"/><path class="cls-1" d="M6.18,39.08s0,0,0,0,0-.07,0-.07l.52-.15-.14-.52a.06.06,0,0,1,0-.07s.07,0,.07,0l.15.58a.06.06,0,0,1,0,.07l-.57.16Z"/><path class="cls-1" d="M5.94,39.72a.05.05,0,0,1-.05,0,.08.08,0,0,1,0-.08L7,39a0,0,0,0,1,.07,0,.05.05,0,0,1,0,.08L6,39.71Z"/><path class="cls-1" d="M6.25,39.82h0a.05.05,0,0,1,0-.07l.09-.29L6,39.4a.06.06,0,0,1,0-.06s0-.06.07-.05l.36.07,0,0s0,0,0,0l-.11.34A.05.05,0,0,1,6.25,39.82Z"/><path class="cls-1" d="M6.61,39.83h0a.06.06,0,0,1,0-.07l.14-.53-.52-.14a.06.06,0,0,1,0-.07s0-.05.07,0l.57.16a.06.06,0,0,1,0,.07l-.15.58S6.63,39.83,6.61,39.83Z"/><path class="cls-1" d="M244.71,40.36a.06.06,0,0,1-.06-.06V39a.06.06,0,0,1,.12,0V40.3A.06.06,0,0,1,244.71,40.36Z"/><path class="cls-1" d="M245,40.14l0,0-.2-.22-.2.22a.06.06,0,0,1-.08,0,.08.08,0,0,1,0-.09l.24-.27a.07.07,0,0,1,.09,0L245,40a.06.06,0,0,1,0,.09Z"/><path class="cls-1" d="M245.14,39.84l0,0-.39-.38-.38.38a.06.06,0,0,1-.08,0,0,0,0,0,1,0-.08l.42-.42a.06.06,0,0,1,.08,0l.43.42a.06.06,0,0,1,0,.08Z"/><path class="cls-1" d="M245.81,39.72h0l-1.1-.63a.08.08,0,0,1,0-.08.05.05,0,0,1,.08,0l1.1.63a.05.05,0,0,1,0,.08A.05.05,0,0,1,245.81,39.72Z"/><path class="cls-1" d="M245.51,39.82a.05.05,0,0,1-.06,0l-.11-.34a0,0,0,0,1,0,0l0,0,.35-.07a.05.05,0,0,1,.07.05,0,0,0,0,1,0,.06l-.29.06.09.29a.06.06,0,0,1,0,.07Z"/><path class="cls-1" d="M245.15,39.83a.07.07,0,0,1-.06,0l-.15-.58a.07.07,0,0,1,0-.07l.58-.16a.06.06,0,1,1,0,.11l-.52.14.13.53a.06.06,0,0,1,0,.07Z"/><path class="cls-1" d="M244.71,39.09a.05.05,0,0,1-.05,0,.07.07,0,0,1,0-.08l1.1-.64a.07.07,0,0,1,.08,0,.05.05,0,0,1,0,.08l-1.1.64Z"/><path class="cls-1" d="M245.75,38.77h0l-.35-.08,0,0a0,0,0,0,1,0-.05l.11-.35a.05.05,0,0,1,.07,0,.06.06,0,0,1,0,.07l-.09.28.29.06a.06.06,0,0,1,0,.07A.05.05,0,0,1,245.75,38.77Z"/><path class="cls-1" d="M245.57,39.08h0l-.58-.16a.07.07,0,0,1,0-.07l.15-.58a.06.06,0,0,1,.11,0l-.13.52.52.15s0,0,0,.07A.07.07,0,0,1,245.57,39.08Z"/><path class="cls-1" d="M244.71,39.09a.06.06,0,0,1-.06-.06V37.76a.06.06,0,1,1,.12,0V39A.06.06,0,0,1,244.71,39.09Z"/><path class="cls-1" d="M244.71,38.3a0,0,0,0,1,0,0l-.24-.27a.06.06,0,0,1,0-.08.05.05,0,0,1,.08,0l.2.22.2-.22A.06.06,0,1,1,245,38l-.24.27A.06.06,0,0,1,244.71,38.3Z"/><path class="cls-1" d="M244.71,38.76l0,0-.42-.42a0,0,0,0,1,0-.08.06.06,0,0,1,.08,0l.38.38.39-.38a.06.06,0,0,1,.08.08l-.43.42Z"/><path class="cls-1" d="M244.71,39.09h0l-1.1-.64a.07.07,0,0,1,0-.08.08.08,0,0,1,.08,0l1.1.64a.05.05,0,0,1,0,.08A.05.05,0,0,1,244.71,39.09Z"/><path class="cls-1" d="M243.68,38.77a.06.06,0,0,1-.06-.05.08.08,0,0,1,0-.07l.29-.06-.09-.28a.05.05,0,1,1,.1,0l.12.35a.11.11,0,0,1,0,.05l0,0-.36.08Z"/><path class="cls-1" d="M243.85,39.08a.08.08,0,0,1-.06,0s0-.07.05-.07l.52-.15-.14-.52a.06.06,0,1,1,.11,0l.15.58a.06.06,0,0,1,0,.07l-.57.16Z"/><path class="cls-1" d="M243.61,39.72a.05.05,0,0,1-.05,0,.08.08,0,0,1,0-.08l1.1-.63a.05.05,0,0,1,.08,0,.05.05,0,0,1,0,.08l-1.1.63Z"/><path class="cls-1" d="M243.92,39.82h0a.05.05,0,0,1,0-.07l.09-.29-.29-.06a.06.06,0,0,1,0-.06s0-.06.07-.05l.36.07,0,0a.07.07,0,0,1,0,0l-.12.34S243.94,39.82,243.92,39.82Z"/><path class="cls-1" d="M244.28,39.83h0a.06.06,0,0,1,0-.07l.14-.53-.52-.14a.06.06,0,0,1-.05-.07.06.06,0,0,1,.08,0l.57.16a.06.06,0,0,1,0,.07l-.15.58S244.3,39.83,244.28,39.83Z"/><path class="cls-2" d="M70.58,45.42c2.9,1.07,6.36,1.25,8.79-.65a8.9,8.9,0,0,0,2.91-3.33,2,2,0,0,0,0-1.85,2,2,0,0,0-1.57-.87c-.55,0-1,.53-1.34,1.16a5.18,5.18,0,0,0-.46,2.1,4.64,4.64,0,0,0,2,3.65,11,11,0,0,0,4.16,1.83,18.86,18.86,0,0,0,4.63.55A14,14,0,0,1,80.5,46.2,5.17,5.17,0,0,1,78.05,42a6,6,0,0,1,.49-2.48,2.68,2.68,0,0,1,2.09-1.71,2.39,2.39,0,0,1,1.37.38,3,3,0,0,1,1,.94,2.83,2.83,0,0,1,0,2.65,8.88,8.88,0,0,1-3.29,3.6,7.8,7.8,0,0,1-4.62,1.3A11.24,11.24,0,0,1,70.58,45.42Z"/><path class="cls-2" d="M25.69,40.87a38.38,38.38,0,0,1,7.58-4,38,38,0,0,1,8.33-2.16,25.46,25.46,0,0,1,8.62.17,22.84,22.84,0,0,1,7.94,3.24A28.8,28.8,0,0,0,50.1,35.6a26.41,26.41,0,0,0-8.37,0,43,43,0,0,0-8.22,1.91A60.25,60.25,0,0,0,25.69,40.87Z"/><path class="cls-2" d="M0,45.68a27,27,0,0,0,7,.69,66.59,66.59,0,0,0,7.07-.7A18.54,18.54,0,0,1,7,47.3,13.41,13.41,0,0,1,0,45.68Z"/><path class="cls-2" d="M232.43,47.29c2.38.07,4.71.27,7.06.36,1.17,0,2.34.13,3.52.13a29.7,29.7,0,0,0,3.53,0A13.47,13.47,0,0,0,253.21,46a10.18,10.18,0,0,0,2.4-2.54A7.81,7.81,0,0,0,257,40.23a7.75,7.75,0,0,1-1.28,3.28,10.05,10.05,0,0,1-2.37,2.67,13.79,13.79,0,0,1-6.78,2.11c-1.19.06-2.36.25-3.56.29s-2.38.06-3.57,0A28.84,28.84,0,0,1,232.43,47.29Z"/><path class="cls-2" d="M195.7,35.92a18.1,18.1,0,0,1,9.62.47,21.73,21.73,0,0,1,8.33,4.84A40.27,40.27,0,0,0,205,37.28,28.72,28.72,0,0,0,195.7,35.92Z"/><path class="cls-2" d="M168.54,47.59a22.08,22.08,0,0,0,5.67-.83,29.52,29.52,0,0,0,5.06-2.61c3.21-2,6.28-4.42,9.88-5.91-3.14,2.24-6,4.73-9.44,6.65A19.15,19.15,0,0,1,174.27,47,20.89,20.89,0,0,1,168.54,47.59Z"/><path class="cls-3" d="M17.23,47.13a.88.88,0,0,0,0,.86l.08,1,.25,0,0-1a.64.64,0,0,0,.05-.61l.14-1.88.2,0,.33.88.09,1s.13-.58,0,.05.08.83.08.83l.11,1.15.25,0,0-1.12a1.11,1.11,0,0,0,0-.64l0-1a5.23,5.23,0,0,1,.09-1.12,6.85,6.85,0,0,0,2.58-.43l.11,0a8.16,8.16,0,0,0,1.48,1.53l0,2.84.43,0a11,11,0,0,1,.29-2.85l.28.19.74,2.67.43,0a13.6,13.6,0,0,1-.48-3,2.63,2.63,0,0,0-.66-.51,5.74,5.74,0,0,1-.18-1.58l.06-.14s.29-.83.08-1.19c0,0,.29,0,.43-.46,0,0-.27,0-1.13-.55a2.44,2.44,0,0,0-1.87.06,6,6,0,0,1-2.69-.17,2.61,2.61,0,0,1-.53-1.25c1-.16,1-.53,1-.53V40a.3.3,0,0,0-.27-.31,2.11,2.11,0,0,1-.72-.41,1.06,1.06,0,0,0,.82-.26.64.64,0,0,0,.23-.63.5.5,0,0,1-.36.16,2.74,2.74,0,0,0-.53.09,2.26,2.26,0,0,0,.87-.89s0,0,0,0a1,1,0,0,0,.64.1s0,0,0,0a1.69,1.69,0,0,1-.49-.17s0,0,0,0a1,1,0,0,1,.25-.38s0,0,0,0a1.14,1.14,0,0,0-.34.24h0l-.07-.09v0A1,1,0,0,0,19.16,36s0,0,0,0a1.25,1.25,0,0,1,0,1h0l-.26-.19a0,0,0,0,1,0,0,.42.42,0,0,0,0-.46s0,0,0,0,0,.34-.17.32a2.58,2.58,0,0,0-1.12-.4s0,0,0,0a2.65,2.65,0,0,1,1,.49h0s.71.43.51.89h0s-.57.67-.9.64a0,0,0,0,1,0,0,.4.4,0,0,1,.19-.36,0,0,0,0,0,0,0c-.11,0-.35.07-.51.55h0l-.38.29-.15,0-.42-.29h0c-.19-.46-.43-.51-.55-.51s0,0,0,0a.38.38,0,0,1,.22.35,0,0,0,0,1,0,0c-.32,0-.9-.55-.94-.58h0c-.24-.45.41-.9.45-.92h0a2.73,2.73,0,0,1,.93-.54,0,0,0,0,0,0,0,2.67,2.67,0,0,0-1.1.47c-.13,0-.17-.18-.18-.3a0,0,0,0,0,0,0,.44.44,0,0,0,0,.46,0,0,0,0,1,0,0l-.25.2h0a1.21,1.21,0,0,1,0-1s0,0,0,0a1.06,1.06,0,0,0-.06,1.33s0,0,0,0l0,.09a0,0,0,0,1,0,0,1.17,1.17,0,0,0-.35-.22s0,0,0,0a1.18,1.18,0,0,1,.28.37,0,0,0,0,1,0,0,2.07,2.07,0,0,1-.47.2,0,0,0,1,0,0,0,1,1,0,0,0,.63-.14h0a2.26,2.26,0,0,0,.87.82,1.36,1.36,0,0,1-.29-.06h0a1,1,0,0,0,.83.87,1.08,1.08,0,0,0,0,.59v0a1.41,1.41,0,0,0,.19.3h0l.06,2.75a2.67,2.67,0,0,0-.16.73,2.32,2.32,0,0,0,.42,1.92Zm.88-8.29A.38.38,0,0,0,18,39l-.12-.09A1.46,1.46,0,0,0,18.11,38.84Z"/><path class="cls-3" d="M197.28,47.58l2.07,1.93h-13l2.08-1.93h-2.08A7.15,7.15,0,0,0,189,45.15h-1.78a11.63,11.63,0,0,0,2.36-2.25h-1.25c1.17-.9,2.61-2.3,2.61-2.3h-1.85c2.1-1.23,3.71-4.56,3.71-4.56s1.6,3.33,3.71,4.56h-1.86s1.45,1.4,2.62,2.3h-1.26a11.5,11.5,0,0,0,2.37,2.25h-1.79a7.15,7.15,0,0,0,2.72,2.43Z"/><path class="cls-3" d="M67.25,47.58l2.07,1.93h-13l2.07-1.93H56.3A7.09,7.09,0,0,0,59,45.15H57.23A11.8,11.8,0,0,0,59.6,42.9H58.34C59.51,42,61,40.6,61,40.6H59.1C61.2,39.37,62.81,36,62.81,36s1.61,3.33,3.71,4.56H64.66s1.45,1.4,2.62,2.3H66a11.8,11.8,0,0,0,2.37,2.25H66.61a7.09,7.09,0,0,0,2.71,2.43Z"/><path class="cls-3" d="M56.38,48.44l1.14,1.07H50.34l1.14-1.07H50.34a3.83,3.83,0,0,0,1.49-1.33h-1a6.64,6.64,0,0,0,1.31-1.24h-.7a19.14,19.14,0,0,0,1.44-1.28h-1a6.86,6.86,0,0,0,2-2.51,6.79,6.79,0,0,0,2,2.51H55s.8.78,1.44,1.28H55.7A6.78,6.78,0,0,0,57,47.11H56a3.89,3.89,0,0,0,1.5,1.33Z"/><path class="cls-3" d="M205,48.38l1.22,1.13h-7.63l1.21-1.13h-1.21A4.21,4.21,0,0,0,200.17,47h-1a7,7,0,0,0,1.38-1.32h-.73c.68-.53,1.53-1.35,1.53-1.35h-1.09a7.33,7.33,0,0,0,2.17-2.67,7.33,7.33,0,0,0,2.17,2.67h-1.08s.84.82,1.53,1.35h-.74A7.16,7.16,0,0,0,205.66,47h-1a4.13,4.13,0,0,0,1.59,1.42Z"/><g id="HATCH"><path class="cls-3" d="M32.24,19A7.52,7.52,0,0,1,34,23.81v1a7.57,7.57,0,0,1-7.57,7.57H0V26.85H23.85c2.51,0,4.54-1.17,4.54-2.62s-2-2.62-4.54-2.62H0V16.25H23.85c2.51,0,4.54-1.18,4.54-2.62S26.36,11,23.85,11L0,11V5.64H26.42A7.57,7.57,0,0,1,34,13.2v1C34,16.07,32.24,19,32.24,19Z"/></g><g id="HATCH-2" data-name="HATCH"><path class="cls-3" d="M120.78,40.14A5.48,5.48,0,1,0,122.39,44,5.32,5.32,0,0,0,120.78,40.14Zm-1.33,6.44a3.61,3.61,0,0,1-5.11,0,3.62,3.62,0,0,1,2.55-6.18,3.61,3.61,0,0,1,2.56,6.18Z"/></g><g id="HATCH-3" data-name="HATCH"><path class="cls-3" d="M72.91,19a7.52,7.52,0,0,1-1.75-4.83v-1a7.57,7.57,0,0,1,7.57-7.56h26.42v5.48H81.3c-2.5,0-4.53,1.18-4.53,2.63s2,2.62,4.53,2.62h23.85v5.37H81.3c-2.5,0-4.53,1.17-4.53,2.62S78.8,27,81.3,27l23.85,0v5.38H78.73a7.56,7.56,0,0,1-7.57-7.56v-1C71.16,21.91,72.91,19,72.91,19Z"/></g><g id="HATCH-4" data-name="HATCH"><path class="cls-4" d="M52,16.25V5.64H46.12V21.75A10.58,10.58,0,0,0,56.71,32.33h.73A10.58,10.58,0,0,0,68,21.75V5.64H62.08V21.83a5.06,5.06,0,1,1-10.11,0V16.25Z"/></g><g id="HATCH-5" data-name="HATCH"><path class="cls-3" d="M137.49,11.14h-19.1c-2.51,0-4.54,1.09-4.54,2.43s1.53,2.7,4,2.7h14.63c5,0,9.39,3.48,9.39,8s-4,8.11-9,8.11H108.3V27h23.64c2.5,0,4.53-1.09,4.53-2.44s-1.34-2.69-3.85-2.69H117.2c-5,0-9.07-3.5-9.07-8s4-8.11,9-8.11H142v5.39H129.45Z"/></g><g id="HATCH-6" data-name="HATCH"><path class="cls-3" d="M150.8,21.81V32.33h-5.63V15.87h23.48c2.51,0,4-1.1,4-2.44s-1.51-2.41-4-2.41H145.17V5.64h23.94c5.48,0,9.93,3.63,9.93,8.11s-4.45,8.11-9.93,8.11h-17.2C151.57,21.86,150.8,21.81,150.8,21.81Z"/></g><g id="HATCH-7" data-name="HATCH"><path class="cls-3" d="M196.61,13.46c0-1.37,1.69-2.49,3.78-2.49H215.7c2.09,0,3.78,1.12,3.78,2.49s-1.69,2.48-3.78,2.48H200.12l0,6,15.32,10.34h10.28L210.1,22h5.77c5,0,9.08-3.68,9.08-8.22s-4.07-8.23-9.08-8.23H200c-5,0-9.07,3.9-9.07,8.44V32.33h5.67Z"/></g><g id="HATCH-8" data-name="HATCH"><path class="cls-3" d="M246.2,32.33a9,9,0,0,1-9.08-9V.49h5.82v5H257V11H242.94V23.86a3.19,3.19,0,0,0,3.21,3H257v5.44Z"/></g><g id="HATCH-9" data-name="HATCH"><polygon class="cls-3" points="37.13 32.34 42.98 32.34 42.98 0.52 37.13 0.52 37.13 32.34 37.13 32.34"/></g><g id="HATCH-10" data-name="HATCH"><polygon class="cls-3" points="182.18 32.34 188.02 32.34 188.02 5.64 182.18 5.64 182.18 32.34 182.18 32.34"/></g><g id="HATCH-11" data-name="HATCH"><polygon class="cls-3" points="228.13 32.34 233.98 32.34 233.98 5.64 228.13 5.64 228.13 32.34 228.13 32.34"/></g><g id="HATCH-12" data-name="HATCH"><path class="cls-3" d="M96.45,49.51a5.48,5.48,0,1,1,0-11,5.54,5.54,0,0,1,3.82,1.55l.41.38-1.4,1.24-.33-.3a3.66,3.66,0,0,0-2.5-1A3.6,3.6,0,0,0,92.84,44a3.48,3.48,0,0,0,1.06,2.56,3.43,3.43,0,0,0,2.55,1,3.34,3.34,0,0,0,2-.6v-3.2h1.85v4l-.15.15A5.23,5.23,0,0,1,96.45,49.51Z"/></g><g id="HATCH-13" data-name="HATCH"><polygon class="cls-3" points="106.89 49.51 105.03 49.51 105.03 38.78 106.89 38.78 106.89 49.51 106.89 49.51"/></g><g id="HATCH-14" data-name="HATCH"><polygon class="cls-3" points="128.77 49.51 126.9 49.51 126.9 38.78 128.77 38.78 128.77 49.51 128.77 49.51"/></g><g id="HATCH-15" data-name="HATCH"><polygon class="cls-3" points="139.66 49.51 133.63 49.51 133.63 38.78 139.66 38.78 139.66 40.64 135.49 40.64 135.49 43.21 139.66 43.21 139.66 45.08 135.49 45.08 135.49 47.64 139.66 47.64 139.66 49.51 139.66 49.51"/></g><g id="HATCH-16" data-name="HATCH"><polygon class="cls-3" points="149.9 49.51 144.45 49.51 144.45 38.78 146.32 38.78 146.32 47.64 149.9 47.64 149.9 49.51 149.9 49.51"/></g><g id="HATCH-17" data-name="HATCH"><polygon class="cls-3" points="159.72 49.51 154.27 49.51 154.27 38.78 156.14 38.78 156.14 47.64 159.72 47.64 159.72 49.51 159.72 49.51"/></g><g id="HATCH-18" data-name="HATCH"><polygon class="cls-3" points="166.03 49.51 164.16 49.51 164.16 38.78 166.03 38.78 166.03 49.51 166.03 49.51"/></g><path class="cls-3" d="M229.33,37.44H220.8v-.72H221V36h-2.4v.68h.24v.72h-2.13l-1.4,3.73H216v8.34h1.52v-4a1.31,1.31,0,0,1,.38-.94,1.34,1.34,0,0,1,.94-.39,1.32,1.32,0,0,1,1.33,1.33v4H230V41.17h.73Zm-1.26,9.27h-2.14V43.15h2.14Z"/><path class="cls-3" d="M43.49,42.66l-1,.77-.2-.66-.19,1.06L40.7,45.19a3.41,3.41,0,0,0-.84-.72,2.35,2.35,0,0,0,.74-1.7,2.27,2.27,0,0,0-.46-1.33h.66V40.16H40V38.53H36.52v1.63h-.84v1.28h.66a2.27,2.27,0,0,0-.46,1.33,2.35,2.35,0,0,0,.74,1.7,3.49,3.49,0,0,0-.81.67L34.5,43.83l-.2-1.06-.19.66-1-.78.73,1.06-.66.18,1.06.21.33.34-.66.26,1.06.14.61.61a3.19,3.19,0,0,0-.64,1.9,3.25,3.25,0,0,0,.82,2.16h5a3.3,3.3,0,0,0,.82-2.16A3.19,3.19,0,0,0,41,45.5l.66-.66,1.06-.19L42,44.44l.33-.34,1.06-.23-.66-.16Z"/></svg>